<svg xmlns="http://www.w3.org/2000/svg" viewBox="20 20 160 160" width="512" height="512">
  <!-- Gem base -->
  <path d="M100 20 L156 56 L176 116 L140 164 L60 164 L24 116 L44 56 Z" fill="#0ea5a4"/>

  <!-- Facets -->
  <path d="M100 20 L156 56 L120 78 L100 40 Z" fill="#5eead4"/>
  <path d="M100 20 L44 56 L80 78 L100 40 Z" fill="#14b8a6"/>
  <path d="M156 56 L176 116 L120 78 Z" fill="#0d9488"/>
  <path d="M44 56 L24 116 L80 78 Z" fill="#0f766e"/>
  <path d="M120 78 L176 116 L140 164 L100 108 Z" fill="#0a5c54"/>
  <path d="M80 78 L24 116 L60 164 L100 108 Z" fill="#0b534c"/>

  <!-- Phone horn centered -->
  <g transform="translate(55,55) scale(4)">
    <path d="M6.62,10.79C8.06,13.62 10.38,15.94 13.21,17.38L15.41,15.18C15.69,14.9 16.08,14.82 16.43,14.93C17.55,15.3 18.75,15.5 20,15.5A1,1 0 0,1 21,16.5V20A1,1 0 0,1 20,21A17,17 0 0,1 3,4A1,1 0 0,1 4,3H7.5A1,1 0 0,1 8.5,4C8.5,5.25 8.7,6.45 9.07,7.57C9.18,7.92 9.1,8.31 8.82,8.59L6.62,10.79Z" fill="white"/>
  </g>
</svg>
